<?xml version="1.0" encoding="UTF-8"?>
<svg version="1.1" xmlns="http://www.w3.org/2000/svg" width="48" height="48">
<path d="M0 0 C4.68796317 2.8950501 8.77605467 6.42344712 10.234375 11.89453125 C11.16656452 18.74158704 11.3930195 24.99387098 7.671875 31.01953125 C3.66347868 35.99068326 0.31000422 38.47580101 -6.0078125 39.3359375 C-13.1275177 39.69575056 -18.34453314 39.19135672 -23.98828125 34.640625 C-29.08369757 29.63479842 -30.03494232 26.05750776 -30.390625 19.01953125 C-30.17838344 12.13997715 -28.58962241 7.80486419 -23.765625 2.89453125 C-17.29271618 -2.6344117 -7.84970384 -3.13766411 0 0 Z " fill="#2597EE" transform="translate(33.765625,5.10546875)"/>
<path d="M0 0 C3.71803628 1.19508309 5.44934176 3.46567086 7.23046875 6.87890625 C8.99790966 11.75058348 9.02702784 16.60882831 6.9765625 21.3828125 C3.81529018 26.72823661 3.81529018 26.72823661 0 28 C-0.66 25.36 -1.32 22.72 -2 20 C-3.98 20 -5.96 20 -8 20 C-7.6588753 16.36133651 -6.46823504 13.99489366 -4.5 11 C-2.51616076 7.97863564 -1.42841964 5.64156697 -1 2 C-0.67 1.34 -0.34 0.68 0 0 Z " fill="#C6D93F" transform="translate(34,10)"/>
<path d="M0 0 C0.66 0.99 1.32 1.98 2 3 C0.35 3 -1.3 3 -3 3 C-3.66 4.32 -4.32 5.64 -5 7 C-3.02 6.34 -1.04 5.68 1 5 C1.66 6.32 2.32 7.64 3 9 C0.8614515 11.1385485 -0.13275314 11.42655063 -3 12 C-3.33 13.65 -3.66 15.3 -4 17 C-4.33 16.34 -4.66 15.68 -5 15 C-6.32 15 -7.64 15 -9 15 C-9 15.66 -9 16.32 -9 17 C-8.36191406 17.10957031 -7.72382813 17.21914063 -7.06640625 17.33203125 C-5.82697266 17.56986328 -5.82697266 17.56986328 -4.5625 17.8125 C-3.73878906 17.96332031 -2.91507813 18.11414063 -2.06640625 18.26953125 C-1.04353516 18.63111328 -1.04353516 18.63111328 0 19 C0.33 19.99 0.66 20.98 1 22 C2.32 22 3.64 22 5 22 C4.64947365 25.15473719 4.13480924 26.8233534 2.1875 29.375 C0 31 0 31 -2.05078125 30.8984375 C-4 30 -4 30 -4.8359375 27.890625 C-5.01382812 27.01921875 -5.19171875 26.1478125 -5.375 25.25 C-6.32858943 21.49957004 -7.00845419 19.51330194 -10.1875 17.25 C-13 15 -13 15 -13.6875 12.1875 C-12.75033443 7.84245961 -10.74149944 4.48087353 -8 1 C-5.21136993 -0.39431504 -3.07921132 -0.25660094 0 0 Z " fill="#C1D745" transform="translate(19,10)"/>
<path d="M0 0 C2.31 0 4.62 0 7 0 C7 4 7 4 5.125 6.25 C3 8 3 8 1 8 C0.67 5.36 0.34 2.72 0 0 Z " fill="#B3D154" transform="translate(22,6)"/>
</svg>
